<svg width="31" height="37" viewBox="0 0 31 37" fill="none" xmlns="http://www.w3.org/2000/svg">
<path d="M3.14894 15.7836C3.03544 15.8993 2.90002 15.9911 2.7506 16.0539C2.60118 16.1166 2.44075 16.1489 2.2787 16.1489C2.11664 16.1489 1.95622 16.1166 1.80679 16.0539C1.65737 15.9911 1.52195 15.8993 1.40845 15.7836C1.17744 15.5486 1.04799 15.2322 1.04799 14.9026C1.04799 14.5731 1.17744 14.2567 1.40845 14.0217L12.1745 3.14678C14.6022 1.26171 17.0443 0.356654 19.4756 0.479827C22.5388 0.636917 24.9237 1.80438 26.9481 3.71981C29.0116 5.67272 30.3469 8.45928 30.3469 11.8367C30.3469 14.4287 29.5936 16.7101 28.0031 18.7344L12.8242 34.372C11.2891 35.6305 9.58248 36.2392 7.75453 36.166C5.43388 36.0696 3.70768 35.3199 2.42418 34.0507C0.921118 32.5672 0 30.7446 0 28.2937C0 26.3443 0.672987 24.5449 2.0618 22.8562L15.4216 9.21617C16.4927 8.0737 17.5405 7.39535 18.6116 7.23112C19.3265 7.11852 20.058 7.18247 20.7425 7.41738C21.4271 7.65229 22.0437 8.05104 22.5388 8.57888C23.4885 9.5839 23.8955 10.837 23.7527 12.2634C23.6545 13.2362 23.2564 14.1324 22.5245 14.991L10.243 27.5725C10.1302 27.6886 9.99547 27.7811 9.8466 27.8445C9.69773 27.908 9.53771 27.9412 9.37587 27.9422C9.21403 27.9432 9.05361 27.912 8.90397 27.8504C8.75433 27.7887 8.61845 27.6979 8.50428 27.5832C8.27182 27.3496 8.14045 27.034 8.13844 26.7044C8.13644 26.3749 8.26397 26.0577 8.49356 25.8213L20.7162 13.3041C21.0733 12.8846 21.2607 12.4615 21.3053 12.0117C21.3767 11.2976 21.2054 10.771 20.7609 10.3015C20.5364 10.0611 20.2559 9.87984 19.9445 9.77395C19.6331 9.66806 19.3003 9.64079 18.9757 9.69458C18.542 9.76063 17.935 10.1551 17.1871 10.9513L3.88262 24.5306C2.92401 25.6999 2.45988 26.9405 2.45988 28.2955C2.45988 29.9984 3.07575 31.2177 4.14146 32.2691C4.98939 33.1081 6.14079 33.6079 7.85449 33.6793C9.06837 33.7275 10.193 33.3259 11.1712 32.5333L26.1608 17.0921C27.3122 15.6158 27.887 13.8789 27.887 11.8385C27.887 9.19296 26.857 7.04726 25.2665 5.54062C23.642 4.00185 21.7855 3.09502 19.3524 2.97006C17.553 2.87723 15.6661 3.577 13.7882 5.0158L3.14894 15.7836Z" fill="#964B00"/>
</svg>
