<svg width="45" height="48" viewBox="0 0 45 48" fill="none" xmlns="http://www.w3.org/2000/svg">
<path d="M45 24.75C45 37.1768 34.9268 47.25 22.5 47.25C10.0737 47.25 0 37.1768 0 24.75C0 12.3237 10.0737 2.25 22.5 2.25C34.9268 2.25 45 12.3237 45 24.75Z" fill="#6F3903"/>
<path d="M45 22.5C45 34.9268 34.9268 45 22.5 45C10.0737 45 0 34.9268 0 22.5C0 10.0737 10.0737 0 22.5 0C34.9268 0 45 10.0737 45 22.5Z" fill="#964B00"/>
<path d="M31.5 15.75L18 29.25L12.375 23.625L7.59375 28.3499L13.2188 33.9749L17.7188 38.4749L18 38.6999L36.2812 20.4749L31.5 15.75Z" fill="#6F3903"/>
<path d="M31.5 13.5L18 27L12.375 21.375L7.59375 26.0999L13.2188 31.7249L17.7188 36.2249L18 36.4499L36.2812 18.2249L31.5 13.5Z" fill="#ECF0F1"/>
</svg>
