<svg width="24" height="25" viewBox="0 0 24 25" fill="none" xmlns="http://www.w3.org/2000/svg">
<path d="M4.8 14.7164H19.2V12.3164H4.8V14.7164ZM4.8 11.1164H19.2V8.71641H4.8V11.1164ZM4.8 7.51641H19.2V5.11641H4.8V7.51641ZM24 24.3164L19.2 19.5164H2.4C1.74 19.5164 1.1748 19.2812 0.704402 18.8108C0.234002 18.3404 -0.000797963 17.7756 2.03735e-06 17.1164V2.71641C2.03735e-06 2.05641 0.235202 1.49121 0.705602 1.02081C1.176 0.550408 1.7408 0.315608 2.4 0.316408H21.6C22.26 0.316408 22.8252 0.551608 23.2956 1.02201C23.766 1.49241 24.0008 2.05721 24 2.71641V24.3164ZM20.22 17.1164L21.6 18.4664V2.71641H2.4V17.1164H20.22Z" fill="#964B00"/>
</svg>
