<svg width="24" height="25" viewBox="0 0 24 25" fill="none" xmlns="http://www.w3.org/2000/svg">
<path d="M19.08 18.7844C18.768 17.8244 17.868 17.1164 16.8 17.1164H15.6V13.5164C15.6 13.1981 15.4736 12.8929 15.2485 12.6679C15.0235 12.4428 14.7183 12.3164 14.4 12.3164H7.2V9.91641H9.6C9.91826 9.91641 10.2235 9.78998 10.4485 9.56493C10.6736 9.33989 10.8 9.03467 10.8 8.71641V6.31641H13.2C13.8365 6.31641 14.447 6.06355 14.8971 5.61346C15.3471 5.16338 15.6 4.55293 15.6 3.91641V3.42441C17.0358 4.00324 18.3099 4.92138 19.3133 6.10021C20.3167 7.27904 21.0196 8.68346 21.3616 10.1933C21.7037 11.7031 21.6748 13.2733 21.2774 14.7695C20.8801 16.2656 20.1261 17.6433 19.08 18.7844ZM10.8 21.8324C6.06 21.2444 2.4 17.2124 2.4 12.3164C2.4 11.5724 2.496 10.8524 2.652 10.1684L8.4 15.9164V17.1164C8.4 17.7529 8.65286 18.3634 9.10294 18.8135C9.55303 19.2635 10.1635 19.5164 10.8 19.5164M12 0.316406C10.4241 0.316406 8.86371 0.626796 7.4078 1.22985C5.95189 1.83291 4.62902 2.71682 3.51472 3.83113C1.26428 6.08156 0 9.13381 0 12.3164C0 15.499 1.26428 18.5513 3.51472 20.8017C4.62902 21.916 5.95189 22.7999 7.4078 23.403C8.86371 24.006 10.4241 24.3164 12 24.3164C15.1826 24.3164 18.2348 23.0521 20.4853 20.8017C22.7357 18.5513 24 15.499 24 12.3164C24 10.7405 23.6896 9.18011 23.0866 7.72421C22.4835 6.2683 21.5996 4.94543 20.4853 3.83113C19.371 2.71682 18.0481 1.83291 16.5922 1.22985C15.1363 0.626796 13.5759 0.316406 12 0.316406Z" fill="#964B00"/>
</svg>
