<svg width="41" height="41" viewBox="0 0 41 41" fill="none" xmlns="http://www.w3.org/2000/svg">
<path fill-rule="evenodd" clip-rule="evenodd" d="M0 20.5C0 9.17785 9.17785 0 20.5 0C31.8221 0 41 9.17785 41 20.5C41 31.8221 31.8221 41 20.5 41C9.17785 41 0 31.8221 0 20.5ZM20.5 4.1C16.1504 4.1 11.979 5.82785 8.90345 8.90345C5.82785 11.979 4.1 16.1504 4.1 20.5C4.1 24.8496 5.82785 29.021 8.90345 32.0965C11.979 35.1721 16.1504 36.9 20.5 36.9C24.8496 36.9 29.021 35.1721 32.0965 32.0965C35.1721 29.021 36.9 24.8496 36.9 20.5C36.9 16.1504 35.1721 11.979 32.0965 8.90345C29.021 5.82785 24.8496 4.1 20.5 4.1Z" fill="#964B00"/>
<path fill-rule="evenodd" clip-rule="evenodd" d="M22.5492 10.2492C22.5492 9.70552 22.3332 9.1841 21.9488 8.79965C21.5643 8.4152 21.0429 8.19922 20.4992 8.19922C19.9555 8.19922 19.4341 8.4152 19.0497 8.79965C18.6652 9.1841 18.4492 9.70552 18.4492 10.2492V18.4492H10.2492C9.70552 18.4492 9.1841 18.6652 8.79965 19.0497C8.4152 19.4341 8.19922 19.9555 8.19922 20.4992C8.19922 21.0429 8.4152 21.5643 8.79965 21.9488C9.1841 22.3332 9.70552 22.5492 10.2492 22.5492H18.4492V30.7492C18.4492 31.2929 18.6652 31.8143 19.0497 32.1988C19.4341 32.5832 19.9555 32.7992 20.4992 32.7992C21.0429 32.7992 21.5643 32.5832 21.9488 32.1988C22.3332 31.8143 22.5492 31.2929 22.5492 30.7492V22.5492H30.7492C31.2929 22.5492 31.8143 22.3332 32.1988 21.9488C32.5832 21.5643 32.7992 21.0429 32.7992 20.4992C32.7992 19.9555 32.5832 19.4341 32.1988 19.0497C31.8143 18.6652 31.2929 18.4492 30.7492 18.4492H22.5492V10.2492Z" fill="#964B00"/>
</svg>
