<svg width="42" height="38" viewBox="0 0 42 38" fill="none" xmlns="http://www.w3.org/2000/svg">
<path d="M35.6154 9.30664H6.38462C3.96306 9.30664 2 11.2697 2 13.6913V31.2297C2 33.6513 3.96306 35.6143 6.38462 35.6143H35.6154C38.0369 35.6143 40 33.6513 40 31.2297V13.6913C40 11.2697 38.0369 9.30664 35.6154 9.30664Z" stroke="#964B00" stroke-width="2.92308" stroke-linejoin="round"/>
<path d="M35.1915 9.30622V6.56584C35.1913 5.89372 35.0428 5.22993 34.7565 4.62184C34.4702 4.01374 34.0532 3.47633 33.5353 3.04794C33.0174 2.61955 32.4113 2.31074 31.7603 2.14356C31.1093 1.97637 30.4295 1.95492 29.7692 2.08074L5.71231 6.18675C4.6676 6.38584 3.72512 6.94326 3.04742 7.76287C2.36972 8.58249 1.99928 9.61291 2 10.6764V15.1524" stroke="#964B00" stroke-width="2.92308" stroke-linejoin="round"/>
<path d="M31.2297 25.3833C30.6516 25.3833 30.0864 25.2118 29.6057 24.8906C29.125 24.5694 28.7504 24.1129 28.5291 23.5788C28.3079 23.0447 28.25 22.4569 28.3628 21.8899C28.4756 21.3229 28.754 20.8021 29.1628 20.3933C29.5716 19.9845 30.0924 19.7061 30.6595 19.5933C31.2265 19.4805 31.8142 19.5384 32.3483 19.7596C32.8825 19.9809 33.339 20.3555 33.6602 20.8362C33.9814 21.3169 34.1528 21.8821 34.1528 22.4602C34.1528 23.2354 33.8448 23.9789 33.2966 24.5271C32.7485 25.0753 32.005 25.3833 31.2297 25.3833Z" fill="#964B00"/>
</svg>
