<svg width="36" height="36" viewBox="0 0 36 36" fill="none" xmlns="http://www.w3.org/2000/svg">
<path d="M12.735 22.05L18 18.855L23.265 22.05L21.87 16.065L26.55 12.015L20.385 11.52L18 5.85L15.615 11.52L9.45 12.015L14.13 16.065L12.735 22.05ZM0 36V3.6C0 2.61 0.3528 1.7622 1.0584 1.0566C1.764 0.351003 2.6112 -0.00119694 3.6 3.05603e-06H32.4C33.39 3.05603e-06 34.2378 0.352803 34.9434 1.0584C35.649 1.764 36.0012 2.6112 36 3.6V25.2C36 26.19 35.6472 27.0378 34.9416 27.7434C34.236 28.449 33.3888 28.8012 32.4 28.8H7.2L0 36ZM5.67 25.2H32.4V3.6H3.6V27.225L5.67 25.2Z" fill="#964B00"/>
</svg>
