<svg width="22" height="29" viewBox="0 0 22 29" fill="none" xmlns="http://www.w3.org/2000/svg">
<path d="M11 16.3164C10.0111 16.3164 9.0444 16.0232 8.22215 15.4738C7.39991 14.9244 6.75904 14.1435 6.3806 13.2298C6.00217 12.3162 5.90315 11.3109 6.09608 10.341C6.289 9.37105 6.76521 8.48014 7.46447 7.78088C8.16373 7.08161 9.05465 6.60541 10.0246 6.41248C10.9945 6.21956 11.9998 6.31857 12.9134 6.69701C13.8271 7.07545 14.6079 7.71631 15.1574 8.53856C15.7068 9.3608 16 10.3275 16 11.3164C15.9984 12.642 15.4711 13.9129 14.5338 14.8502C13.5964 15.7875 12.3256 16.3148 11 16.3164ZM11 8.31641C10.4067 8.31641 9.82664 8.49236 9.33329 8.822C8.83994 9.15164 8.45543 9.62018 8.22836 10.1684C8.0013 10.7165 7.94189 11.3197 8.05765 11.9017C8.1734 12.4836 8.45912 13.0182 8.87868 13.4377C9.29824 13.8573 9.83279 14.143 10.4147 14.2588C10.9967 14.3745 11.5999 14.3151 12.1481 14.088C12.6962 13.861 13.1648 13.4765 13.4944 12.9831C13.8241 12.4898 14 11.9098 14 11.3164C13.9992 10.521 13.6829 9.7584 13.1204 9.19597C12.558 8.63353 11.7954 8.3172 11 8.31641Z" fill="#964B00"/>
<path d="M11 28.3164L2.56401 18.3674C2.44679 18.218 2.33079 18.0677 2.21601 17.9164C0.774992 16.0182 -0.00348119 13.6996 1.17029e-05 11.3164C1.17029e-05 8.39902 1.15894 5.60113 3.22184 3.53823C5.28474 1.47533 8.08263 0.316406 11 0.316406C13.9174 0.316406 16.7153 1.47533 18.7782 3.53823C20.8411 5.60113 22 8.39902 22 11.3164C22.0035 13.6985 21.2254 16.0161 19.785 17.9134L19.784 17.9164C19.784 17.9164 19.484 18.3104 19.439 18.3634L11 28.3164ZM3.81201 16.7114C3.81401 16.7114 4.04601 17.0194 4.09901 17.0854L11 25.2244L17.91 17.0744C17.954 17.0194 18.188 16.7094 18.189 16.7084C19.3662 15.1575 20.0023 13.2634 20 11.3164C20 8.92946 19.0518 6.64027 17.364 4.95245C15.6761 3.26462 13.387 2.31641 11 2.31641C8.61306 2.31641 6.32388 3.26462 4.63605 4.95245C2.94822 6.64027 2.00001 8.92946 2.00001 11.3164C1.99791 13.2646 2.63379 15.1598 3.81201 16.7114Z" fill="#964B00"/>
</svg>
