<svg width="30" height="30" viewBox="0 0 30 30" fill="none" xmlns="http://www.w3.org/2000/svg">
<path fill-rule="evenodd" clip-rule="evenodd" d="M2.36962 14.2473C2.36962 21.1696 7.38857 25.8861 13.0261 26.8617C13.1794 26.8883 13.326 26.9448 13.4576 27.0281C13.5891 27.1113 13.7029 27.2196 13.7925 27.3469C13.8822 27.4741 13.9459 27.6177 13.98 27.7696C14.0141 27.9214 14.018 28.0785 13.9914 28.2319C13.9649 28.3852 13.9083 28.5318 13.8251 28.6634C13.7418 28.7949 13.6335 28.9087 13.5063 28.9983C13.3791 29.088 13.2354 29.1517 13.0836 29.1858C12.9317 29.2199 12.7746 29.2238 12.6213 29.1972C6.00136 28.0511 0 22.4704 0 14.2473C0 10.752 1.5896 8.00485 3.44527 5.91722C4.77562 4.42086 6.297 3.20421 7.52047 2.27411H3.80003C3.49847 2.27411 3.20925 2.15431 2.99601 1.94107C2.78277 1.72783 2.66298 1.43862 2.66298 1.13705C2.66298 0.835488 2.78277 0.546274 2.99601 0.333035C3.20925 0.119796 3.49847 0 3.80003 0H10.6223C10.9239 0 11.2131 0.119796 11.4264 0.333035C11.6396 0.546274 11.7594 0.835488 11.7594 1.13705V7.95937C11.7594 8.26093 11.6396 8.55015 11.4264 8.76339C11.2131 8.97662 10.9239 9.09642 10.6223 9.09642C10.3208 9.09642 10.0316 8.97662 9.81833 8.76339C9.60509 8.55015 9.48529 8.26093 9.48529 7.95937V3.76137L9.48302 3.76592C8.18223 4.74378 6.59491 5.94224 5.21907 7.4909C3.59309 9.31928 2.36962 11.532 2.36962 14.2473ZM27.6304 15.1706C27.6304 8.32095 22.7183 3.63402 17.1536 2.58793C16.9985 2.56162 16.8502 2.50468 16.7173 2.42044C16.5845 2.3362 16.4697 2.22634 16.3798 2.09728C16.2898 1.96822 16.2265 1.82254 16.1934 1.66874C16.1604 1.51494 16.1583 1.35609 16.1873 1.20147C16.2163 1.04685 16.2757 0.899554 16.3623 0.768172C16.4488 0.636789 16.5606 0.523952 16.6912 0.436244C16.8218 0.348537 16.9686 0.287714 17.1229 0.257326C17.2773 0.226937 17.4361 0.22759 17.5902 0.259248C24.126 1.48727 30 7.03608 30 15.1706C30 18.6659 28.4104 21.4107 26.5547 23.5006C25.2244 24.997 23.703 26.2136 22.4795 27.1437H26.2C26.5015 27.1437 26.7908 27.2635 27.004 27.4768C27.2172 27.69 27.337 27.9792 27.337 28.2808C27.337 28.5823 27.2172 28.8716 27.004 29.0848C26.7908 29.298 26.5015 29.4178 26.2 29.4178H19.3777C19.0761 29.4178 18.7869 29.298 18.5736 29.0848C18.3604 28.8716 18.2406 28.5823 18.2406 28.2808V21.4585C18.2406 21.1569 18.3604 20.8677 18.5736 20.6544C18.7869 20.4412 19.0761 20.3214 19.3777 20.3214C19.6792 20.3214 19.9684 20.4412 20.1817 20.6544C20.3949 20.8677 20.5147 21.1569 20.5147 21.4585V25.6542H20.5193C21.8178 24.6718 23.4074 23.4756 24.7809 21.9247C26.4069 20.0985 27.6304 17.8881 27.6304 15.1706Z" fill="#964B00"/>
</svg>
