<svg width="35" height="35" viewBox="0 0 35 35" fill="none" xmlns="http://www.w3.org/2000/svg">
<path d="M34.0003 16.0784L2.14929 0.152902C1.89965 0.0280558 1.61925 -0.0219674 1.34184 0.00885587C1.06443 0.0396791 0.801844 0.150035 0.585699 0.326634C0.379282 0.499633 0.225213 0.726779 0.140813 0.982539C0.0564122 1.2383 0.0450261 1.51253 0.107935 1.77441L4.39334 17.3669L0.050024 32.916C-0.00900676 33.1347 -0.0158975 33.3642 0.0299062 33.586C0.0757098 33.8078 0.17293 34.0159 0.313749 34.1933C0.454567 34.3707 0.635055 34.5126 0.840701 34.6076C1.04635 34.7026 1.27141 34.748 1.4978 34.7402C1.72443 34.7388 1.94759 34.6843 2.14929 34.5809L34.0003 18.6554C34.2374 18.5339 34.4364 18.3493 34.5754 18.122C34.7144 17.8947 34.7879 17.6334 34.7879 17.3669C34.7879 17.1005 34.7144 16.8392 34.5754 16.6118C34.4364 16.3845 34.2374 16.1999 34.0003 16.0784ZM3.74184 30.5561L6.94142 18.8147H20.3188V15.9191H6.94142L3.74184 4.17771L30.1058 17.3669L3.74184 30.5561Z" fill="#964B00"/>
</svg>
